<?xml version="1.0" encoding="UTF-8" standalone="no"?>
<!-- Svg Vector Icons : http://www.onlinewebfonts.com/icon -->

<svg
   xmlns:dc="http://purl.org/dc/elements/1.1/"
   xmlns:cc="http://creativecommons.org/ns#"
   xmlns:rdf="http://www.w3.org/1999/02/22-rdf-syntax-ns#"
   xmlns:svg="http://www.w3.org/2000/svg"
   xmlns="http://www.w3.org/2000/svg"
   xmlns:sodipodi="http://sodipodi.sourceforge.net/DTD/sodipodi-0.dtd"
   xmlns:inkscape="http://www.inkscape.org/namespaces/inkscape"
   version="1.1"
   x="0px"
   y="0px"
   viewBox="0 0 1204.6008 368.00259"
   enable-background="new 0 0 1000 1000"
   xml:space="preserve"
   id="svg66"
   sodipodi:docname="lgo2.svg"
   inkscape:version="0.92.4 5da689c313, 2019-01-14"
   width="1204.6008"
   height="368.00259"><defs
   id="defs70" /><sodipodi:namedview
   pagecolor="#ffffff"
   bordercolor="#666666"
   borderopacity="1"
   objecttolerance="10"
   gridtolerance="10"
   guidetolerance="10"
   inkscape:pageopacity="0"
   inkscape:pageshadow="2"
   inkscape:window-width="1600"
   inkscape:window-height="900"
   id="namedview68"
   showgrid="false"
   showborder="false"
   inkscape:zoom="0.338"
   inkscape:cx="154.8584"
   inkscape:cy="-45.010079"
   inkscape:window-x="0"
   inkscape:window-y="0"
   inkscape:window-maximized="0"
   inkscape:current-layer="svg66"
   fit-margin-top="0"
   fit-margin-left="0"
   fit-margin-right="0"
   fit-margin-bottom="0" />
<metadata
   id="metadata60"> Svg Vector Icons : http://www.onlinewebfonts.com/icon <rdf:RDF><cc:Work
     rdf:about=""><dc:format>image/svg+xml</dc:format><dc:type
       rdf:resource="http://purl.org/dc/dcmitype/StillImage" /><dc:title></dc:title></cc:Work></rdf:RDF></metadata>
<g
   id="g64"
   transform="matrix(0.37551286,0,0,0.37551286,-49.379941,-3.7551286)"><path
     d="M 868.5,10 H 332.1 L 157.3,536.1 h 125 L 131.5,990 842.8,386.1 H 624.9 Z M 638.6,461.1 287,759.6 386.2,461.2 H 261.3 L 386.2,85 H 730.6 L 487,461.1 Z"
     id="path62"
     inkscape:connector-curvature="0" /></g>
<g
   aria-label="Olunteer"
   style="font-style:normal;font-variant:normal;font-weight:normal;font-stretch:normal;font-size:133.33332825px;line-height:1.25;font-family:Couture;-inkscape-font-specification:Couture;letter-spacing:0px;word-spacing:0px;fill:#000000;fill-opacity:1;stroke:none"
   id="text74"
   transform="matrix(1,0,-0.52510843,1,940.4586,265.58617)"><path
     d="m -649.62811,18.7541 c 0,-39.36 -32.064,-71.04 -71.04,-71.04 -39.168,0 -70.848,31.68 -70.848,71.04 0,39.168 31.68,70.848 70.848,70.848 38.976,0 71.04,-31.68 71.04,-70.848 z m -71.04,-42.048 c 22.848,0 41.472,19.1999997 41.472,42.048 0,22.848 -18.624,41.856 -41.472,41.856 -22.848,0 -41.856,-19.008 -41.856,-41.856 0,-22.8480003 19.008,-42.048 41.856,-42.048 z"
     style="font-size:192px"
     id="path888"
     inkscape:connector-curvature="0" /><path
     d="m -535.51411,86.9141 v -25.344 h -70.272 v -111.36 h -29.568 v 136.704 z"
     style="font-size:192px"
     id="path890"
     inkscape:connector-curvature="0" /><path
     d="m -397.24711,-49.2139 h -30.144 v 85.248 c 0,20.544 -6.912,29.76 -28.416,29.76 -24.384,0 -28.224,-14.784 -28.224,-29.76 v -85.248 h -30.144 v 85.248 c 0,37.44 21.312,55.104 58.368,55.104 36.672,0 58.56,-18.048 58.56,-55.104 z"
     style="font-size:192px"
     id="path892"
     inkscape:connector-curvature="0" /><path
     d="m -278.72911,88.0661 h 25.536 v -137.664 h -25.536 v 85.632 l -61.248,-85.632 h -34.56 v 137.664 h 26.304 V -6.7819003 Z"
     style="font-size:192px"
     id="path894"
     inkscape:connector-curvature="0" /><path
     d="m -194.97211,87.8741 h 30.144 v -111.552 h 43.2 v -25.344 h -116.928 v 25.152 h 43.584 z"
     style="font-size:192px"
     id="path896"
     inkscape:connector-curvature="0" /><path
     d="m -78.746107,33.1541 h 62.592 V 6.4660997 h -62.592 V -24.4459 h 70.8480001 v -25.344 H -107.93011 V 87.6821 H -1.3701069 V 62.3381 H -78.746107 Z"
     style="font-size:192px"
     id="path898"
     inkscape:connector-curvature="0" /><path
     d="M 46.128893,33.1541 H 108.72089 V 6.4660997 H 46.128893 V -24.4459 h 70.847997 v -25.344 H 16.944893 V 87.6821 H 123.50489 V 62.3381 H 46.128893 Z"
     style="font-size:192px"
     id="path900"
     inkscape:connector-curvature="0" /><path
     d="m 222.26789,37.1861 c 22.848,-4.992 32.64,-23.808 32.64,-42.4320003 0,-22.2719997 -13.248,-43.9679997 -47.808,-43.9679997 h -61.824 v 137.28 h 30.336 v -49.344 h 14.784 l 34.56,49.344 h 36.864 l -38.4,-50.88 z m -23.232,-62.976 c 14.4,0 26.304,2.688 26.304,20.5439997 0,17.4720003 -11.904,20.7360003 -26.304,20.7360003 h -23.424 v -41.28 z"
     style="font-size:192px"
     id="path902"
     inkscape:connector-curvature="0" /></g></svg>